<?xml version="1.0" encoding="UTF-8"?>
<svg width="20px" height="20px" viewBox="0 0 20 20" version="1.1" xmlns="http://www.w3.org/2000/svg" xmlns:xlink="http://www.w3.org/1999/xlink">
    <title>-mockplus-</title>
    <defs>
        <filter id="filter-1">
            <feColorMatrix in="SourceGraphic" type="matrix" values="0 0 0 0 1.000000 0 0 0 0 1.000000 0 0 0 0 1.000000 0 0 0 1.000000 0"></feColorMatrix>
        </filter>
    </defs>
    <g id="Page-2" stroke="none" stroke-width="1" fill="none" fill-rule="evenodd">
        <g id="实时监控/预警详情_未展开" transform="translate(-1007.000000, -530.000000)">
            <g id="全屏" transform="translate(1007.000000, 530.000000)" filter="url(#filter-1)">
                <g>
                    <rect id="Rectangle" fill="#000000" fill-rule="nonzero" opacity="0" x="0" y="0" width="20" height="20"></rect>
                    <path d="M11.9737151,7.98480612 C12.264658,8.27559913 12.7632851,8.27559913 13.0954962,7.98480612 L15.921179,5.20088279 L15.921179,7.44457248 C15.921179,7.77710402 16.170501,8.02627603 16.502712,8.02627603 L16.9181312,8.02627603 C17.2506612,8.02627603 17.5,7.81855714 17.5,7.52776413 L17.5,3.4140672 L17.4583792,3.4140672 L17.5,3.12330776 C17.5,2.9570252 17.4583792,2.83234686 17.3751543,2.70773568 C17.292282,2.62466155 17.1258659,2.54160422 16.9597352,2.54160422 L16.668826,2.54160422 L12.5555336,2.5 C12.2230203,2.5 11.9737151,2.79094411 11.9737151,3.08168676 L11.9737151,3.49725884 C12.0153192,3.87122671 12.3059598,4.0789456 12.6384563,4.0789456 L14.7990789,4.0789456 L12.015336,6.86288572 C11.6412187,7.15366194 11.6412187,7.65242568 11.9737319,7.98480612 L11.9737151,7.98480612 Z M8.02625128,11.973724 C7.73562747,11.6828134 7.23700028,11.6828134 6.90447022,11.973724 L4.07882101,14.7575298 L4.07882101,12.5552764 C4.07882101,12.2230639 3.82978444,11.973724 3.49727117,11.973724 L3.08156663,11.973724 C2.74933878,11.973724 2.5,12.1814429 2.5,12.4723534 L2.5,16.5443454 L2.54160403,16.5443454 L2.5,16.8352559 C2.5,17.0013706 2.54160403,17.125881 2.62450989,17.2506937 C2.70771796,17.3339021 2.87413409,17.4168084 3.04023122,17.4168084 L3.33115725,17.4168084 L7.44443282,17.4584126 C7.77724829,17.4584126 8.02626807,17.1674852 8.02626807,16.8768601 L8.02626807,16.4611537 C7.98466404,16.0873202 7.69404023,15.8796013 7.36152696,15.8796013 L5.20093785,15.8796013 L8.02630165,13.0955101 C8.31721088,12.8045995 8.31721088,12.3059533 8.02628486,11.973724 L8.02625128,11.973724 Z M17.4583456,16.5859328 L17.4583456,12.5136554 C17.4583456,12.1814429 17.1674028,12.015345 16.876779,12.015345 L16.4610912,12.015345 C16.1288634,12.015345 15.8795246,12.3059701 15.8795246,12.5968974 L15.8795246,14.799134 L13.0538754,12.015345 C12.7632684,11.7244009 12.2646076,11.7244009 11.9320775,12.015345 C11.6411851,12.3059701 11.6411851,12.8045995 11.9320775,13.1371143 L14.7574581,15.9209033 L12.5968354,15.9209033 C12.2646244,15.9209033 11.9736816,16.1288908 11.9320775,16.5027244 L11.9320775,16.9181789 C11.9320775,17.2506937 12.2230371,17.5 12.5136609,17.5 L16.5442993,17.4583958 L16.8352421,17.4583958 C17.0013392,17.4583958 17.1258659,17.4167916 17.2506612,17.2922811 C17.3338525,17.2090727 17.3751543,17.042958 17.3751543,16.8768433 L17.4583456,16.5859328 C17.4167416,16.5859328 17.4583456,16.5859328 17.4583456,16.5859328 L17.4583456,16.5859328 Z M5.24250831,4.07896239 L7.40313099,4.07896239 C7.73566105,4.07896239 8.02628486,3.87122671 8.06787211,3.49727563 L8.06787211,3.08168676 C8.06787211,2.74930632 7.77726508,2.5 7.48605364,2.5 L3.37277807,2.54160422 L3.08156663,2.54160422 C2.91575491,2.54160422 2.79094281,2.58320844 2.6661475,2.70773568 C2.58322486,2.79094411 2.54163761,2.95704199 2.54163761,3.12330776 L2.58322486,3.4140672 L2.54163761,3.4140672 L2.54163761,7.52778092 C2.54163761,7.86016136 2.7909596,8.02629281 3.12318745,8.02629281 L3.53860657,8.02629281 C3.87142205,8.02629281 4.12044183,7.77712081 4.12044183,7.44460606 L4.12044183,5.200866 L6.94580563,7.98480612 C7.23701707,8.27559913 7.73566105,8.27559913 8.06787211,7.98480612 C8.35883171,7.69389559 8.35883171,7.19526616 8.06787211,6.86288572 L5.24250831,4.07896239 Z" id="Shape" fill="#000000" fill-rule="nonzero"></path>
                </g>
            </g>
        </g>
    </g>
</svg>