<?xml version="1.0" encoding="UTF-8"?>
<svg width="25px" height="25px" viewBox="0 0 25 25" version="1.1" xmlns="http://www.w3.org/2000/svg" xmlns:xlink="http://www.w3.org/1999/xlink">
    <title>-mockplus-</title>
    <defs>
        <filter id="filter-1">
            <feColorMatrix in="SourceGraphic" type="matrix" values="0 0 0 0 0.980392 0 0 0 0 0.678431 0 0 0 0 0.078431 0 0 0 1.000000 0"></feColorMatrix>
        </filter>
    </defs>
    <g id="Page-2" stroke="none" stroke-width="1" fill="none" fill-rule="evenodd">
        <g id="实时监控/预警详情_未展开" transform="translate(-320.000000, -15.000000)">
            <g id="logo" transform="translate(320.000000, 15.000000)" filter="url(#filter-1)">
                <g>
                    <rect id="Rectangle" x="0" y="0" width="25" height="25"></rect>
                    <g id="Group" transform="translate(1.733398, 1.562500)" fill="#AD7F23">
                        <path d="M10.4899902,2.69824219 C9.29248047,4.16113281 8.43579102,5.91210938 8.03662109,7.82983398 C5.03759766,5.73022461 3.38769531,3.89086914 3.8449707,2.86743164 C4.30712891,1.82910156 6.84399414,1.83911133 10.4899902,2.69824219" id="Path"></path>
                        <path d="M0.001953125,1.84423828 L0.001953125,1.06347656 C0.001953125,0.477294922 0.474365234,0.0048828125 1.06054688,0.0048828125 L13.6052246,0.0048828125 C12.5390625,0.644042969 11.5788574,1.44750977 10.7626953,2.37744141 C5.62109375,1.01538086 1.61376953,0.767822266 0.001953125,1.84423828" id="Path"></path>
                        <path d="M16.6750488,21.8703613 L1.06054688,21.8703613 C0.474365234,21.8703613 0.001953125,21.3952637 0.001953125,20.8093262 L0.001953125,5.22485352 C1.28295898,7.11694336 4.08764648,9.4621582 7.88256836,11.8293457 C8.5065918,16.6855469 12.0388184,20.6347656 16.6750488,21.8703613" id="Path"></path>
                        <path d="M21.5314941,1.06347656 L21.5314941,14.8564453 C20.5612793,14.4699707 19.5683594,14.0505371 18.5627441,13.6032715 C16.0866699,12.501709 13.7924805,11.3369141 11.786377,10.1896973 C11.8544922,7.71875 12.6933594,5.46240234 14.0476074,3.69628906 C14.1184082,3.6027832 14.189209,3.50927734 14.2624512,3.42089844 C15.7507324,1.609375 17.7971191,0.361083984 20.1091309,0.0048828125 L20.470459,0.0048828125 C21.0563965,0.0048828125 21.5314941,0.477294922 21.5314941,1.06347656" id="Path"></path>
                        <path d="M17.175293,16.7185059 C18.6533203,17.3779297 20.1086426,17.9768066 21.53125,18.5148926 L21.53125,20.809082 C21.53125,20.920166 21.5136719,21.0290527 21.4807129,21.1298828 L21.4755859,21.1298828 C17.3874512,21.1298828 13.8930664,18.3605957 12.4655762,14.4443359 C13.9538574,15.2226562 15.5305176,15.9858398 17.175293,16.7185059" id="Path"></path>
                    </g>
                </g>
            </g>
        </g>
    </g>
</svg>